<svg width="16" height="16" viewBox="0 0 16 16" fill="none" xmlns="http://www.w3.org/2000/svg">
<g clip-path="url(#clip0_5207_750)">
<path d="M10 6.66662L13.0353 5.14929C13.1369 5.09851 13.2498 5.07454 13.3633 5.07965C13.4768 5.08477 13.5871 5.11879 13.6837 5.17849C13.7804 5.2382 13.8602 5.32161 13.9155 5.4208C13.9709 5.52 13.9999 5.6317 14 5.74529V10.2546C13.9999 10.3682 13.9709 10.4799 13.9155 10.5791C13.8602 10.6783 13.7804 10.7617 13.6837 10.8214C13.5871 10.8811 13.4768 10.9151 13.3633 10.9203C13.2498 10.9254 13.1369 10.9014 13.0353 10.8506L10 9.33329V6.66662Z" stroke="#B7BDC6" stroke-width="1.33333" stroke-linecap="round" stroke-linejoin="round"/>
<path d="M8.66666 4H3.33333C2.59695 4 2 4.59695 2 5.33333V10.6667C2 11.403 2.59695 12 3.33333 12H8.66666C9.40304 12 10 11.403 10 10.6667V5.33333C10 4.59695 9.40304 4 8.66666 4Z" stroke="#B7BDC6" stroke-width="1.33333" stroke-linecap="round" stroke-linejoin="round"/>
<line x1="2.27728" y1="1.33325" x2="14.5338" y2="13.5898" stroke="#B7BDC6" stroke-width="1.33333" stroke-linecap="round"/>
</g>
<defs>
<clipPath id="clip0_5207_750">
<rect width="16" height="16" fill="white"/>
</clipPath>
</defs>
</svg>
