<svg width="20" height="20" viewBox="0 0 20 20" fill="none" xmlns="http://www.w3.org/2000/svg">
<path d="M7.77742 9.25942C9.41382 9.25942 10.7404 7.93286 10.7404 6.29646C10.7404 4.66006 9.41382 3.3335 7.77742 3.3335C6.14102 3.3335 4.81445 4.66006 4.81445 6.29646C4.81445 7.93286 6.14102 9.25942 7.77742 9.25942Z" stroke="white" stroke-width="1.66667" stroke-linecap="round" stroke-linejoin="round"/>
<path d="M12.9636 3.42969C13.601 3.59287 14.1659 3.96354 14.5693 4.48325C14.9727 5.00296 15.1916 5.64215 15.1916 6.30006C15.1916 6.95796 14.9727 7.59715 14.5693 8.11686C14.1659 8.63658 13.601 9.00724 12.9636 9.17043M16.6673 16.6667V15.1852C16.6636 14.5313 16.4436 13.8969 16.0416 13.3811C15.6396 12.8652 15.0783 12.4969 14.4451 12.3334M3.33398 16.6667V15.1852C3.33398 14.3994 3.64615 13.6458 4.20182 13.0901C4.75748 12.5344 5.51112 12.2223 6.29695 12.2223H9.25991C10.0457 12.2223 10.7994 12.5344 11.355 13.0901C11.9107 13.6458 12.2229 14.3994 12.2229 15.1852V16.6667H3.33398Z" stroke="white" stroke-width="1.66667" stroke-linecap="round" stroke-linejoin="round"/>
</svg>
