<svg width="16" height="16" viewBox="0 0 16 16" fill="none" xmlns="http://www.w3.org/2000/svg">
<path d="M10 3.33325C10 2.22868 9.10457 1.33325 8 1.33325C6.89543 1.33325 6 2.22868 6 3.33325L6 6.66659C6 7.77116 6.89543 8.66659 8 8.66659C9.10457 8.66659 10 7.77116 10 6.66659L10 3.33325Z" stroke="#B7BDC6" stroke-width="1.33333" stroke-linecap="round" stroke-linejoin="round"/>
<path d="M3.33447 6.66663C3.33447 7.9043 3.82614 9.09129 4.70131 9.96646C5.57648 10.8416 6.76346 11.3333 8.00114 11.3333M8.00114 11.3333C9.23881 11.3333 10.4258 10.8416 11.301 9.96646C12.1761 9.09129 12.6678 7.9043 12.6678 6.66663M8.00114 11.3333L8.00114 14M5.33447 14L10.6678 14" stroke="#B7BDC6" stroke-width="1.33333" stroke-linecap="round" stroke-linejoin="round"/>
<line x1="2.27728" y1="1.33325" x2="14.5338" y2="13.5898" stroke="#B7BDC6" stroke-width="1.33333" stroke-linecap="round"/>
</svg>
